<svg width="1024" height="1024" viewBox="0 0 1024 1024" xmlns="http://www.w3.org/2000/svg">
  <title>Soren Superman App Icon</title>
  <defs>
    <linearGradient id="bg" x1="0%" y1="0%" x2="100%" y2="100%">
      <stop offset="0%" stop-color="#08111e" />
      <stop offset="55%" stop-color="#0d1d33" />
      <stop offset="100%" stop-color="#07131f" />
    </linearGradient>
    <linearGradient id="crest" x1="0%" y1="0%" x2="100%" y2="100%">
      <stop offset="0%" stop-color="#7ce7ff" />
      <stop offset="50%" stop-color="#22b8ff" />
      <stop offset="100%" stop-color="#0e79ff" />
    </linearGradient>
    <linearGradient id="inner" x1="0%" y1="0%" x2="100%" y2="100%">
      <stop offset="0%" stop-color="#0d2743" />
      <stop offset="100%" stop-color="#09172a" />
    </linearGradient>
    <filter id="glow" x="-20%" y="-20%" width="140%" height="140%">
      <feGaussianBlur stdDeviation="24" result="blur" />
      <feMerge>
        <feMergeNode in="blur" />
        <feMergeNode in="SourceGraphic" />
      </feMerge>
    </filter>
  </defs>

  <rect x="40" y="40" width="944" height="944" rx="220" fill="url(#bg)" />
  <circle cx="512" cy="512" r="320" fill="#0f3156" opacity="0.18" />

  <g filter="url(#glow)">
    <path
      d="M512 180 770 300 706 706 512 858 318 706 254 300Z"
      fill="url(#crest)"
    />
    <path
      d="M512 248 700 336 652 664 512 772 372 664 324 336Z"
      fill="url(#inner)"
    />
  </g>

  <path
    d="M652 370H470c-44 0-68 16-78 44-12 30-7 60 24 84l138 64c24 10 31 20 26 34-5 16-20 22-46 22H372v88h172c52 0 86-16 104-48 17-30 14-72-31-98l-134-62c-18-8-26-18-24-30 2-14 15-22 40-22h153Z"
    fill="#f8fbff"
  />

  <path
    d="M356 784h312"
    stroke="#9fe7ff"
    stroke-opacity="0.35"
    stroke-width="24"
    stroke-linecap="round"
  />
</svg>
